<svg xmlns="http://www.w3.org/2000/svg" xmlns:xlink="http://www.w3.org/1999/xlink" width="1000" zoomAndPan="magnify" viewBox="0 0 750 449.999984" height="600" preserveAspectRatio="xMidYMid meet" version="1.0"><defs><clipPath id="563466ba9f"><path d="M 449.753906 156.953125 L 734.753906 156.953125 L 734.753906 441.953125 L 449.753906 441.953125 Z M 449.753906 156.953125 " clip-rule="nonzero"/></clipPath><clipPath id="4bc3262be5"><path d="M 17.148438 0 L 732.648438 0 L 732.648438 450 L 17.148438 450 Z M 17.148438 0 " clip-rule="nonzero"/></clipPath><clipPath id="28f255779b"><path d="M 250.90625 121.578125 L 546.074219 121.578125 L 546.074219 416.746094 L 250.90625 416.746094 Z M 250.90625 121.578125 " clip-rule="nonzero"/></clipPath><clipPath id="541994dab0"><path d="M 442.585938 121.578125 L 354.398438 121.578125 C 351.414062 121.578125 348.550781 122.761719 346.441406 124.875 C 344.332031 126.984375 343.148438 129.84375 343.148438 132.828125 L 343.148438 202.566406 C 343.148438 205.550781 341.960938 208.414062 339.851562 210.523438 C 337.742188 212.632812 334.882812 213.816406 331.898438 213.816406 L 262.15625 213.816406 C 259.175781 213.816406 256.3125 215.003906 254.203125 217.113281 C 252.09375 219.222656 250.90625 222.085938 250.90625 225.066406 L 250.90625 313.253906 C 250.90625 316.238281 252.09375 319.101562 254.203125 321.210938 C 256.3125 323.320312 259.175781 324.503906 262.15625 324.503906 L 331.898438 324.503906 C 334.882812 324.503906 337.742188 325.691406 339.851562 327.800781 C 341.960938 329.910156 343.148438 332.773438 343.148438 335.753906 L 343.148438 405.496094 C 343.148438 408.480469 344.332031 411.339844 346.441406 413.449219 C 348.550781 415.558594 351.414062 416.746094 354.398438 416.746094 L 442.585938 416.746094 C 445.570312 416.746094 448.429688 415.558594 450.539062 413.449219 C 452.648438 411.339844 453.835938 408.480469 453.835938 405.496094 L 453.835938 335.753906 C 453.835938 332.773438 455.019531 329.910156 457.128906 327.800781 C 459.238281 325.691406 462.101562 324.503906 465.085938 324.503906 L 534.824219 324.503906 C 537.808594 324.503906 540.671875 323.320312 542.78125 321.210938 C 544.890625 319.101562 546.074219 316.238281 546.074219 313.253906 L 546.074219 225.066406 C 546.074219 222.085938 544.890625 219.222656 542.78125 217.113281 C 540.671875 215.003906 537.808594 213.816406 534.824219 213.816406 L 465.085938 213.816406 C 462.101562 213.816406 459.238281 212.632812 457.128906 210.523438 C 455.019531 208.414062 453.835938 205.550781 453.835938 202.566406 L 453.835938 132.828125 C 453.835938 129.84375 452.648438 126.984375 450.539062 124.875 C 448.429688 122.761719 445.570312 121.578125 442.585938 121.578125 Z M 442.585938 121.578125 " clip-rule="nonzero"/></clipPath></defs><rect x="-75" width="900" fill="#ffffff" y="-44.999998" height="539.99998" fill-opacity="1"/><rect x="-75" width="900" fill="#ffffff" y="-44.999998" height="539.99998" fill-opacity="1"/><g clip-path="url(#563466ba9f)"><path fill="#0684df" d="M 461.011719 243.972656 C 468.164062 227.015625 478.453125 211.746094 491.546875 198.699219 C 504.59375 185.605469 519.863281 175.3125 536.824219 168.164062 C 554.410156 160.722656 573.0625 156.953125 592.339844 156.953125 C 611.621094 156.953125 630.269531 160.722656 647.859375 168.164062 C 664.820312 175.3125 680.085938 185.605469 693.132812 198.699219 C 706.226562 211.792969 716.472656 227.015625 723.671875 244.023438 C 731.113281 261.609375 734.878906 280.261719 734.878906 299.539062 C 734.878906 318.820312 731.113281 337.472656 723.671875 355.058594 C 716.519531 372.019531 706.226562 387.289062 693.132812 400.382812 C 680.039062 413.476562 664.820312 423.71875 647.8125 430.917969 C 630.222656 438.359375 611.570312 442.128906 592.292969 442.128906 C 573.011719 442.128906 554.363281 438.359375 536.773438 430.917969 C 519.816406 423.769531 504.546875 413.476562 491.453125 400.382812 C 478.453125 387.238281 468.164062 371.96875 461.011719 355.011719 C 453.570312 337.421875 449.800781 318.773438 449.800781 299.492188 C 449.800781 280.214844 453.570312 261.5625 461.011719 243.972656 Z M 461.011719 243.972656 " fill-opacity="1" fill-rule="nonzero"/></g><g clip-path="url(#4bc3262be5)"><path fill="#0684df" d="M 626.125 212.453125 C 619.585938 94.207031 521.324219 0 401.46875 0 C 301.0625 0 214.226562 65.449219 186.011719 160.714844 C 178.332031 159.457031 170.710938 158.824219 163.230469 158.824219 C 82.960938 158.824219 17.644531 224.140625 17.644531 304.410156 C 17.644531 384.683594 82.960938 450 163.230469 450 L 613.230469 450 C 678.917969 450 732.347656 396.570312 732.347656 330.882812 C 732.347656 269.550781 685.761719 218.910156 626.125 212.453125 Z M 626.125 212.453125 " fill-opacity="1" fill-rule="nonzero"/></g><g clip-path="url(#28f255779b)"><g clip-path="url(#541994dab0)"><path fill="#ffffff" d="M 250.90625 121.578125 L 546.074219 121.578125 L 546.074219 416.746094 L 250.90625 416.746094 Z M 250.90625 121.578125 " fill-opacity="1" fill-rule="nonzero"/></g></g></svg>