<svg xmlns="http://www.w3.org/2000/svg" xmlns:xlink="http://www.w3.org/1999/xlink" width="1000" zoomAndPan="magnify" viewBox="0 0 750 449.999984" height="600" preserveAspectRatio="xMidYMid meet" version="1.0"><defs><clipPath id="2362e7777f"><path d="M 449.753906 156.953125 L 734.753906 156.953125 L 734.753906 441.953125 L 449.753906 441.953125 Z M 449.753906 156.953125 " clip-rule="nonzero"/></clipPath><clipPath id="9916fae13f"><path d="M 17.148438 0 L 732.648438 0 L 732.648438 450 L 17.148438 450 Z M 17.148438 0 " clip-rule="nonzero"/></clipPath><clipPath id="9acc4651ff"><path d="M 267.992188 138.664062 L 519.914062 138.664062 L 519.914062 390.585938 L 267.992188 390.585938 Z M 267.992188 138.664062 " clip-rule="nonzero"/></clipPath><clipPath id="a3ad091102"><path d="M 433.6875 138.664062 L 354.21875 138.664062 C 350.074219 138.664062 346.71875 142.019531 346.71875 146.164062 L 346.71875 209.886719 C 346.71875 214.03125 343.359375 217.386719 339.21875 217.386719 L 275.492188 217.386719 C 271.351562 217.386719 267.992188 220.746094 267.992188 224.886719 L 267.992188 304.359375 C 267.992188 308.5 271.351562 311.859375 275.492188 311.859375 L 339.21875 311.859375 C 343.359375 311.859375 346.71875 315.21875 346.71875 319.359375 L 346.71875 383.085938 C 346.71875 387.226562 350.074219 390.585938 354.21875 390.585938 L 433.6875 390.585938 C 437.832031 390.585938 441.1875 387.226562 441.1875 383.085938 L 441.1875 319.359375 C 441.1875 315.21875 444.546875 311.859375 448.6875 311.859375 L 512.414062 311.859375 C 516.554688 311.859375 519.914062 308.5 519.914062 304.359375 L 519.914062 224.886719 C 519.914062 220.746094 516.554688 217.386719 512.414062 217.386719 L 448.6875 217.386719 C 444.546875 217.386719 441.1875 214.03125 441.1875 209.886719 L 441.1875 146.164062 C 441.1875 142.019531 437.832031 138.664062 433.6875 138.664062 Z M 433.6875 138.664062 " clip-rule="nonzero"/></clipPath></defs><g clip-path="url(#2362e7777f)"><path fill="#0684df" d="M 461.011719 243.972656 C 468.164062 227.015625 478.453125 211.746094 491.546875 198.699219 C 504.59375 185.605469 519.863281 175.3125 536.824219 168.164062 C 554.410156 160.722656 573.0625 156.953125 592.339844 156.953125 C 611.621094 156.953125 630.269531 160.722656 647.859375 168.164062 C 664.820312 175.3125 680.085938 185.605469 693.132812 198.699219 C 706.226562 211.792969 716.472656 227.015625 723.671875 244.023438 C 731.113281 261.609375 734.878906 280.261719 734.878906 299.539062 C 734.878906 318.820312 731.113281 337.472656 723.671875 355.058594 C 716.519531 372.019531 706.226562 387.289062 693.132812 400.382812 C 680.039062 413.476562 664.820312 423.71875 647.8125 430.917969 C 630.222656 438.359375 611.570312 442.128906 592.292969 442.128906 C 573.011719 442.128906 554.363281 438.359375 536.773438 430.917969 C 519.816406 423.769531 504.546875 413.476562 491.453125 400.382812 C 478.453125 387.238281 468.164062 371.96875 461.011719 355.011719 C 453.570312 337.421875 449.800781 318.773438 449.800781 299.492188 C 449.800781 280.214844 453.570312 261.5625 461.011719 243.972656 Z M 461.011719 243.972656 " fill-opacity="1" fill-rule="nonzero"/></g><g clip-path="url(#9916fae13f)"><path fill="#0684df" d="M 626.125 212.453125 C 619.585938 94.207031 521.324219 0 401.46875 0 C 301.0625 0 214.226562 65.449219 186.011719 160.714844 C 178.332031 159.457031 170.710938 158.824219 163.230469 158.824219 C 82.960938 158.824219 17.644531 224.140625 17.644531 304.410156 C 17.644531 384.683594 82.960938 450 163.230469 450 L 613.230469 450 C 678.917969 450 732.347656 396.570312 732.347656 330.882812 C 732.347656 269.550781 685.761719 218.910156 626.125 212.453125 Z M 626.125 212.453125 " fill-opacity="1" fill-rule="nonzero"/></g><g clip-path="url(#9acc4651ff)"><g clip-path="url(#a3ad091102)"><path fill="#ffffff" d="M 267.992188 138.664062 L 519.914062 138.664062 L 519.914062 390.585938 L 267.992188 390.585938 Z M 267.992188 138.664062 " fill-opacity="1" fill-rule="nonzero"/></g></g></svg>